<mxfile host="app.diagrams.net" agent="Mozilla/5.0 (Windows NT 10.0; Win64; x64) AppleWebKit/537.36 (KHTML, like Gecko) Chrome/131.0.0.0 Safari/537.36" version="25.0.3">
  <diagram name="Страница — 1" id="d8nzEJ2zcpGzdaxowSs1">
    <mxGraphModel dx="809" dy="916" grid="1" gridSize="10" guides="1" tooltips="1" connect="1" arrows="1" fold="1" page="1" pageScale="1" pageWidth="827" pageHeight="1169" math="0" shadow="0">
      <root>
        <mxCell id="0" />
        <mxCell id="1" parent="0" />
        <mxCell id="sRFXAXGEAmHEGnhNBkIj-64" style="edgeStyle=orthogonalEdgeStyle;rounded=0;orthogonalLoop=1;jettySize=auto;html=1;exitX=0.5;exitY=1;exitDx=0;exitDy=0;entryX=0.5;entryY=0;entryDx=0;entryDy=0;" parent="1" source="sRFXAXGEAmHEGnhNBkIj-1" edge="1">
          <mxGeometry relative="1" as="geometry">
            <mxPoint x="260" y="220" as="targetPoint" />
          </mxGeometry>
        </mxCell>
        <mxCell id="sRFXAXGEAmHEGnhNBkIj-1" value="Начало" style="ellipse;whiteSpace=wrap;html=1;" parent="1" vertex="1">
          <mxGeometry x="200" y="60" width="120" height="80" as="geometry" />
        </mxCell>
        <mxCell id="sRFXAXGEAmHEGnhNBkIj-9" style="edgeStyle=orthogonalEdgeStyle;rounded=0;orthogonalLoop=1;jettySize=auto;html=1;exitX=0.5;exitY=1;exitDx=0;exitDy=0;entryX=0.5;entryY=0;entryDx=0;entryDy=0;" parent="1" source="sRFXAXGEAmHEGnhNBkIj-2" target="sRFXAXGEAmHEGnhNBkIj-6" edge="1">
          <mxGeometry relative="1" as="geometry" />
        </mxCell>
        <mxCell id="sRFXAXGEAmHEGnhNBkIj-2" value="&lt;div&gt;cout &amp;lt;&amp;lt; &quot;Введите число: \n&quot;;&lt;/div&gt;" style="shape=parallelogram;perimeter=parallelogramPerimeter;whiteSpace=wrap;html=1;fixedSize=1;" parent="1" vertex="1">
          <mxGeometry x="90" y="330" width="340" height="60" as="geometry" />
        </mxCell>
        <mxCell id="sRFXAXGEAmHEGnhNBkIj-72" style="edgeStyle=orthogonalEdgeStyle;rounded=0;orthogonalLoop=1;jettySize=auto;html=1;exitX=0.5;exitY=1;exitDx=0;exitDy=0;entryX=0.5;entryY=0;entryDx=0;entryDy=0;" parent="1" source="sRFXAXGEAmHEGnhNBkIj-6" target="sRFXAXGEAmHEGnhNBkIj-67" edge="1">
          <mxGeometry relative="1" as="geometry" />
        </mxCell>
        <mxCell id="sRFXAXGEAmHEGnhNBkIj-6" value="&lt;div&gt;cin &amp;gt;&amp;gt; n;&lt;/div&gt;" style="shape=parallelogram;perimeter=parallelogramPerimeter;whiteSpace=wrap;html=1;fixedSize=1;" parent="1" vertex="1">
          <mxGeometry x="90" y="430" width="340" height="60" as="geometry" />
        </mxCell>
        <mxCell id="sRFXAXGEAmHEGnhNBkIj-7" value="" style="endArrow=none;dashed=1;html=1;dashPattern=1 3;strokeWidth=2;rounded=0;" parent="1" edge="1">
          <mxGeometry width="50" height="50" relative="1" as="geometry">
            <mxPoint x="450" y="160" as="sourcePoint" />
            <mxPoint x="260" y="160" as="targetPoint" />
          </mxGeometry>
        </mxCell>
        <mxCell id="sRFXAXGEAmHEGnhNBkIj-8" value="&lt;div&gt;#include &amp;lt;iostream&amp;gt;&lt;/div&gt;&lt;div&gt;using namespace std;&lt;/div&gt;&lt;div&gt;&lt;br&gt;&lt;/div&gt;&lt;div&gt;int main()&lt;/div&gt;&lt;div&gt;{&lt;/div&gt;&lt;div&gt;&lt;span style=&quot;white-space-collapse: collapse;&quot;&gt;&lt;span style=&quot;white-space-collapse: preserve;&quot;&gt;&#x9;&lt;/span&gt;setlocale(LC_ALL, &quot;&lt;/span&gt;&lt;span style=&quot;background-color: initial;&quot;&gt;Russian&lt;/span&gt;&lt;span style=&quot;background-color: initial;&quot;&gt;&quot;);&lt;/span&gt;&lt;/div&gt;" style="strokeWidth=2;html=1;shape=mxgraph.flowchart.annotation_1;align=left;pointerEvents=1;" parent="1" vertex="1">
          <mxGeometry x="450" y="110" width="50" height="100" as="geometry" />
        </mxCell>
        <mxCell id="sRFXAXGEAmHEGnhNBkIj-25" style="edgeStyle=orthogonalEdgeStyle;rounded=0;orthogonalLoop=1;jettySize=auto;html=1;exitX=0.5;exitY=1;exitDx=0;exitDy=0;entryX=0.5;entryY=0;entryDx=0;entryDy=0;" parent="1" source="sRFXAXGEAmHEGnhNBkIj-16" target="sRFXAXGEAmHEGnhNBkIj-17" edge="1">
          <mxGeometry relative="1" as="geometry" />
        </mxCell>
        <mxCell id="sRFXAXGEAmHEGnhNBkIj-28" value="" style="edgeStyle=orthogonalEdgeStyle;rounded=0;orthogonalLoop=1;jettySize=auto;html=1;" parent="1" source="sRFXAXGEAmHEGnhNBkIj-16" target="sRFXAXGEAmHEGnhNBkIj-17" edge="1">
          <mxGeometry relative="1" as="geometry" />
        </mxCell>
        <mxCell id="sRFXAXGEAmHEGnhNBkIj-16" value="&lt;div&gt;cout &amp;lt;&amp;lt; &quot;Сумма &quot; &amp;lt;&amp;lt; n &amp;lt;&amp;lt; &quot; первых чисел равна: &quot; &amp;lt;&amp;lt; sum &amp;lt;&amp;lt; endl;&lt;/div&gt;" style="shape=parallelogram;perimeter=parallelogramPerimeter;whiteSpace=wrap;html=1;fixedSize=1;" parent="1" vertex="1">
          <mxGeometry x="90" y="740" width="340" height="60" as="geometry" />
        </mxCell>
        <mxCell id="sRFXAXGEAmHEGnhNBkIj-17" value="Конец" style="ellipse;whiteSpace=wrap;html=1;" parent="1" vertex="1">
          <mxGeometry x="200" y="870" width="120" height="80" as="geometry" />
        </mxCell>
        <mxCell id="sRFXAXGEAmHEGnhNBkIj-26" value="" style="endArrow=none;dashed=1;html=1;dashPattern=1 3;strokeWidth=2;rounded=0;" parent="1" edge="1">
          <mxGeometry width="50" height="50" relative="1" as="geometry">
            <mxPoint x="450" y="840" as="sourcePoint" />
            <mxPoint x="260" y="840" as="targetPoint" />
          </mxGeometry>
        </mxCell>
        <mxCell id="sRFXAXGEAmHEGnhNBkIj-27" value="&lt;div&gt;&lt;span style=&quot;white-space-collapse: collapse;&quot;&gt;&lt;span style=&quot;white-space-collapse: preserve;&quot;&gt;&#x9;&lt;/span&gt;return 0;&lt;/span&gt;&lt;/div&gt;&lt;div&gt;}&lt;/div&gt;" style="strokeWidth=2;html=1;shape=mxgraph.flowchart.annotation_1;align=left;pointerEvents=1;" parent="1" vertex="1">
          <mxGeometry x="450" y="790" width="50" height="100" as="geometry" />
        </mxCell>
        <mxCell id="sRFXAXGEAmHEGnhNBkIj-56" style="edgeStyle=orthogonalEdgeStyle;rounded=0;orthogonalLoop=1;jettySize=auto;html=1;exitX=0.5;exitY=1;exitDx=0;exitDy=0;entryX=0;entryY=0.5;entryDx=0;entryDy=0;" parent="1" edge="1">
          <mxGeometry relative="1" as="geometry">
            <mxPoint x="180" y="1110" as="targetPoint" />
            <Array as="points">
              <mxPoint x="120" y="1550" />
              <mxPoint x="10" y="1550" />
              <mxPoint x="10" y="1110" />
            </Array>
          </mxGeometry>
        </mxCell>
        <mxCell id="sRFXAXGEAmHEGnhNBkIj-73" style="edgeStyle=orthogonalEdgeStyle;rounded=0;orthogonalLoop=1;jettySize=auto;html=1;exitX=0.5;exitY=1;exitDx=0;exitDy=0;entryX=0.5;entryY=0;entryDx=0;entryDy=0;" parent="1" source="sRFXAXGEAmHEGnhNBkIj-67" target="sRFXAXGEAmHEGnhNBkIj-68" edge="1">
          <mxGeometry relative="1" as="geometry" />
        </mxCell>
        <mxCell id="sRFXAXGEAmHEGnhNBkIj-74" style="edgeStyle=orthogonalEdgeStyle;rounded=0;orthogonalLoop=1;jettySize=auto;html=1;exitX=1;exitY=0.5;exitDx=0;exitDy=0;" parent="1" source="sRFXAXGEAmHEGnhNBkIj-67" target="sRFXAXGEAmHEGnhNBkIj-16" edge="1">
          <mxGeometry relative="1" as="geometry">
            <Array as="points">
              <mxPoint x="360" y="570" />
              <mxPoint x="360" y="720" />
              <mxPoint x="260" y="720" />
            </Array>
          </mxGeometry>
        </mxCell>
        <mxCell id="sRFXAXGEAmHEGnhNBkIj-67" value="for (int i = 1; i &amp;lt;= n; i++)" style="shape=hexagon;perimeter=hexagonPerimeter2;whiteSpace=wrap;html=1;fixedSize=1;" parent="1" vertex="1">
          <mxGeometry x="180" y="530" width="160" height="80" as="geometry" />
        </mxCell>
        <mxCell id="sRFXAXGEAmHEGnhNBkIj-69" style="edgeStyle=orthogonalEdgeStyle;rounded=0;orthogonalLoop=1;jettySize=auto;html=1;exitX=0;exitY=0.5;exitDx=0;exitDy=0;entryX=0;entryY=0.5;entryDx=0;entryDy=0;" parent="1" source="sRFXAXGEAmHEGnhNBkIj-68" target="sRFXAXGEAmHEGnhNBkIj-67" edge="1">
          <mxGeometry relative="1" as="geometry" />
        </mxCell>
        <mxCell id="sRFXAXGEAmHEGnhNBkIj-68" value="sum += i;" style="rounded=0;whiteSpace=wrap;html=1;" parent="1" vertex="1">
          <mxGeometry x="200" y="650" width="120" height="60" as="geometry" />
        </mxCell>
        <mxCell id="uI_EwcTAaF1-yTiS7IQf-2" style="edgeStyle=orthogonalEdgeStyle;rounded=0;orthogonalLoop=1;jettySize=auto;html=1;exitX=0.5;exitY=1;exitDx=0;exitDy=0;entryX=0.5;entryY=0;entryDx=0;entryDy=0;" edge="1" parent="1" source="uI_EwcTAaF1-yTiS7IQf-1" target="sRFXAXGEAmHEGnhNBkIj-2">
          <mxGeometry relative="1" as="geometry" />
        </mxCell>
        <mxCell id="uI_EwcTAaF1-yTiS7IQf-1" value="&lt;span style=&quot;text-align: left; text-wrap-mode: nowrap;&quot;&gt;int n, sum = 0;&lt;/span&gt;" style="rounded=0;whiteSpace=wrap;html=1;" vertex="1" parent="1">
          <mxGeometry x="200" y="220" width="120" height="60" as="geometry" />
        </mxCell>
      </root>
    </mxGraphModel>
  </diagram>
</mxfile>
